<svg xmlns="http://www.w3.org/2000/svg" width="512" height="512" viewBox="0 0 512 512" version="1.1"><path d="M 144.660 173.981 C 141.998 174.464, 136.598 175.834, 132.660 177.025 C 128.722 178.217, 122.248 180.689, 118.273 182.520 C 114.298 184.351, 107.684 188.172, 103.576 191.012 C 99.468 193.853, 92.581 199.849, 88.272 204.338 C 83.963 208.827, 78.967 214.638, 77.170 217.252 C 75.372 219.865, 71.927 226.165, 69.513 231.252 C 67.100 236.338, 64.823 241.738, 64.454 243.250 C 63.895 245.540, 64.110 246, 65.737 246 C 66.811 246, 68.381 245.213, 69.224 244.250 C 70.068 243.287, 71.470 241.095, 72.338 239.379 C 73.207 237.662, 76.578 233.556, 79.829 230.255 C 83.079 226.953, 88.385 222.457, 91.620 220.263 C 94.854 218.069, 100.425 214.797, 104 212.992 C 107.575 211.188, 114.288 208.429, 118.918 206.862 C 123.547 205.295, 130.747 203.371, 134.918 202.586 C 139.088 201.801, 146.118 200.849, 150.541 200.469 C 155.084 200.079, 163.243 200.280, 169.299 200.932 C 175.194 201.567, 183.276 202.921, 187.259 203.942 C 191.241 204.963, 200.350 207.916, 207.500 210.503 C 214.650 213.091, 227.784 218.527, 236.688 222.584 C 245.591 226.641, 263.141 234.855, 275.688 240.837 C 288.234 246.820, 302.607 253.334, 307.628 255.312 C 312.648 257.290, 321.357 260.275, 326.981 261.946 C 332.606 263.617, 341.120 265.460, 345.902 266.042 C 352.010 266.784, 356.070 266.784, 359.549 266.042 C 362.272 265.461, 367.087 263.984, 370.250 262.760 C 373.413 261.536, 376 260.019, 376 259.390 C 376 258.760, 375.438 257.833, 374.750 257.331 C 374.063 256.828, 370.125 255.595, 366 254.592 C 361.875 253.589, 354.900 251.406, 350.500 249.741 C 346.100 248.076, 335.750 243.485, 327.500 239.538 C 319.250 235.591, 303.500 227.269, 292.500 221.045 C 281.500 214.821, 267.775 207.121, 262 203.934 C 256.225 200.746, 246.516 195.891, 240.424 193.144 C 234.333 190.398, 224.658 186.508, 218.924 184.501 C 213.191 182.495, 202.425 179.265, 195 177.325 C 182.804 174.138, 179.954 173.763, 165.500 173.449 C 156.700 173.258, 147.322 173.497, 144.660 173.981 M 457.253 233.250 C 456.707 233.938, 454.216 238.645, 451.717 243.711 C 449.218 248.777, 444.781 256.427, 441.857 260.711 C 438.932 264.995, 431.806 273.273, 426.020 279.107 C 419.424 285.757, 411.956 292.053, 406 295.983 C 400.775 299.431, 393.575 303.602, 390 305.252 C 386.425 306.902, 379.064 309.766, 373.643 311.616 C 368.222 313.467, 359.765 315.496, 354.850 316.127 C 348.193 316.980, 343.439 316.986, 336.207 316.150 C 330.868 315.533, 321.100 313.657, 314.500 311.981 C 307.900 310.305, 295.975 306.752, 288 304.085 C 280.025 301.418, 267.875 296.764, 261 293.744 C 254.125 290.723, 241.192 284.817, 232.261 280.618 C 223.329 276.419, 208.254 269.790, 198.761 265.886 C 189.267 261.982, 177.675 257.415, 173 255.738 C 166.346 253.350, 162.313 252.586, 154.429 252.221 C 146.823 251.868, 142.908 252.169, 138.429 253.453 C 135.168 254.387, 129.607 256.728, 126.070 258.656 C 122.534 260.583, 116.909 264.244, 113.570 266.791 C 110.232 269.338, 103.419 275.489, 98.431 280.461 C 93.442 285.432, 85.437 294.450, 80.640 300.500 C 75.843 306.550, 71.658 312.533, 71.339 313.797 C 71.021 315.060, 71.032 316.365, 71.364 316.697 C 71.696 317.030, 75.365 314.646, 79.517 311.401 C 83.669 308.155, 92.564 301.567, 99.283 296.760 C 106.002 291.953, 115.377 286, 120.116 283.532 C 124.854 281.064, 131.379 278.350, 134.616 277.501 C 138.868 276.385, 142.857 276.127, 149 276.569 C 153.675 276.905, 160.875 278.093, 165 279.209 C 169.125 280.324, 177.629 283.217, 183.898 285.637 C 190.167 288.058, 207.267 295.831, 221.898 302.911 C 236.529 309.990, 255.025 318.275, 263 321.320 C 270.975 324.365, 282.693 328.427, 289.039 330.347 C 295.385 332.266, 306.185 335.031, 313.039 336.491 C 319.893 337.951, 330.498 339.401, 336.606 339.714 C 343.065 340.045, 351.750 339.775, 357.358 339.069 C 362.662 338.401, 371.164 336.743, 376.251 335.384 C 381.338 334.025, 388.877 331.455, 393.005 329.672 C 397.133 327.890, 403.208 324.648, 406.505 322.468 C 409.802 320.287, 416.060 315.128, 420.411 311.002 C 424.762 306.876, 430.949 299.975, 434.159 295.666 C 437.369 291.358, 441.536 285.058, 443.418 281.666 C 445.301 278.275, 448.486 270.775, 450.497 265 C 452.508 259.225, 455.030 250.530, 456.101 245.678 C 457.172 240.825, 458.765 235.763, 459.639 234.428 C 461.021 232.319, 461.034 232, 459.737 232 C 458.917 232, 457.798 232.563, 457.253 233.250 M 94.949 238.380 C 91.358 240.790, 86.061 245.342, 83.178 248.496 C 80.295 251.650, 75.939 257.029, 73.499 260.450 C 71.058 263.870, 66.157 272.256, 62.608 279.084 C 59.059 285.913, 55.475 293.975, 54.644 297 C 53.813 300.025, 52.832 305.762, 52.465 309.750 C 51.922 315.648, 52.061 317, 53.211 317 C 53.989 317, 55.835 315.738, 57.313 314.195 C 58.791 312.653, 60 311.119, 60 310.788 C 60 310.456, 65.192 302.503, 71.538 293.115 C 77.884 283.727, 84.926 272.773, 87.187 268.773 C 89.448 264.773, 93.520 258.201, 96.234 254.169 C 98.949 250.137, 102.022 244.962, 103.063 242.669 C 104.104 240.376, 104.966 237.488, 104.978 236.250 C 104.993 234.760, 104.405 234, 103.239 234 C 102.271 234, 98.540 235.971, 94.949 238.380 M 204.064 235.940 C 202.952 236.643, 202.892 237.165, 203.797 238.255 C 204.440 239.030, 207.272 240.919, 210.091 242.453 C 212.911 243.988, 220.832 249.923, 227.694 255.643 C 234.557 261.362, 242.855 267.864, 246.134 270.091 C 249.414 272.318, 258.713 277.488, 266.798 281.580 C 274.884 285.672, 286.072 290.813, 291.660 293.004 C 297.247 295.195, 306.988 298.321, 313.306 299.950 C 319.623 301.579, 328.540 303.382, 333.120 303.956 C 337.700 304.530, 345.734 304.992, 350.974 304.983 C 356.213 304.973, 363.509 304.328, 367.186 303.548 C 370.863 302.769, 376.648 301.010, 380.041 299.640 C 383.433 298.269, 389.875 294.977, 394.355 292.324 C 399.899 289.040, 406.057 283.988, 413.639 276.500 C 420.221 270.001, 426.870 262.277, 429.889 257.622 C 432.700 253.289, 435 248.928, 435 247.931 C 435 246.934, 434.551 245.840, 434.001 245.501 C 433.452 245.161, 427.749 248.352, 421.328 252.592 C 414.908 256.832, 403.770 263.129, 396.577 266.586 C 389.385 270.042, 379.643 273.987, 374.929 275.351 C 370.215 276.715, 362.775 278.144, 358.394 278.526 C 353.633 278.941, 347.430 278.755, 342.972 278.064 C 338.870 277.427, 328.211 274.448, 319.286 271.443 C 310.361 268.438, 295.507 262.802, 286.279 258.919 C 277.051 255.035, 266.125 250.596, 262 249.052 C 257.875 247.509, 249.550 244.860, 243.500 243.165 C 237.450 241.470, 228 239.208, 222.500 238.137 C 217 237.067, 210.925 235.930, 209 235.612 C 207.075 235.294, 204.854 235.441, 204.064 235.940" stroke="none" fill="#f9fafa" fill-rule="evenodd"/><path d="M 233 0.574 C 231.625 0.805, 226.450 1.480, 221.500 2.073 C 216.550 2.665, 207.325 4.274, 201 5.647 C 194.675 7.020, 182.548 10.441, 174.051 13.250 C 164.798 16.308, 152.364 21.451, 143.051 26.071 C 134.498 30.314, 122.550 37.049, 116.500 41.038 C 110.450 45.026, 101.675 51.248, 97 54.863 C 92.325 58.479, 82.411 67.526, 74.969 74.969 C 67.526 82.411, 58.479 92.325, 54.863 97 C 51.248 101.675, 45.026 110.450, 41.038 116.500 C 37.049 122.550, 30.314 134.498, 26.071 143.051 C 21.451 152.364, 16.308 164.798, 13.250 174.051 C 10.441 182.548, 6.991 194.704, 5.584 201.066 C 4.176 207.427, 2.344 218.449, 1.512 225.559 C 0.681 232.670, 0 246.368, 0 256 C 0 265.632, 0.681 279.330, 1.512 286.441 C 2.344 293.551, 4.176 304.573, 5.584 310.934 C 6.991 317.296, 10.441 329.452, 13.250 337.949 C 16.308 347.202, 21.451 359.636, 26.071 368.949 C 30.314 377.502, 37.049 389.450, 41.038 395.500 C 45.026 401.550, 51.243 410.325, 54.854 415 C 58.465 419.675, 67.737 429.802, 75.459 437.504 C 83.182 445.207, 94.675 455.361, 101 460.070 C 107.325 464.779, 115.875 470.776, 120 473.397 C 124.125 476.018, 134.498 481.646, 143.051 485.903 C 152.471 490.592, 164.692 495.657, 174.051 498.750 C 182.548 501.559, 194.704 505.009, 201.066 506.416 C 207.427 507.824, 218.449 509.656, 225.559 510.488 C 232.670 511.319, 246.368 512, 256 512 C 265.632 512, 279.330 511.319, 286.441 510.488 C 293.551 509.656, 304.573 507.824, 310.934 506.416 C 317.296 505.009, 329.452 501.559, 337.949 498.750 C 347.308 495.657, 359.529 490.592, 368.949 485.903 C 377.502 481.646, 387.875 476.018, 392 473.397 C 396.125 470.776, 404.675 464.783, 411 460.080 C 417.539 455.217, 428.761 445.266, 437.014 437.014 C 445.266 428.761, 455.217 417.539, 460.080 411 C 464.783 404.675, 470.776 396.125, 473.397 392 C 476.018 387.875, 481.646 377.502, 485.903 368.949 C 490.592 359.529, 495.657 347.308, 498.750 337.949 C 501.559 329.452, 505.010 317.291, 506.419 310.923 C 507.828 304.556, 509.474 294.656, 510.078 288.923 C 510.681 283.191, 511.586 277.719, 512.088 276.764 C 512.589 275.809, 513 265.721, 513 254.347 C 513 242.973, 512.669 233.998, 512.264 234.403 C 511.859 234.807, 510.973 230.161, 510.295 224.077 C 509.617 217.993, 507.891 207.725, 506.459 201.258 C 505.028 194.791, 501.559 182.548, 498.750 174.051 C 495.657 164.692, 490.592 152.471, 485.903 143.051 C 481.646 134.498, 476.018 124.125, 473.397 120 C 470.776 115.875, 464.779 107.325, 460.070 101 C 455.361 94.675, 445.207 83.182, 437.504 75.459 C 429.802 67.737, 419.675 58.465, 415 54.854 C 410.325 51.243, 401.550 45.026, 395.500 41.038 C 389.450 37.049, 377.525 30.331, 369 26.109 C 360.475 21.887, 347.200 16.314, 339.500 13.726 C 331.800 11.138, 320.775 7.902, 315 6.535 C 309.225 5.168, 300 3.323, 294.500 2.434 C 287.868 1.363, 276.248 0.707, 260 0.486 C 246.525 0.304, 234.375 0.343, 233 0.574 M 144.660 173.981 C 141.998 174.464, 136.598 175.834, 132.660 177.025 C 128.722 178.217, 122.248 180.689, 118.273 182.520 C 114.298 184.351, 107.684 188.172, 103.576 191.012 C 99.468 193.853, 92.581 199.849, 88.272 204.338 C 83.963 208.827, 78.967 214.638, 77.170 217.252 C 75.372 219.865, 71.927 226.165, 69.513 231.252 C 67.100 236.338, 64.823 241.738, 64.454 243.250 C 63.895 245.540, 64.110 246, 65.737 246 C 66.811 246, 68.381 245.213, 69.224 244.250 C 70.068 243.287, 71.470 241.095, 72.338 239.379 C 73.207 237.662, 76.578 233.556, 79.829 230.255 C 83.079 226.953, 88.385 222.457, 91.620 220.263 C 94.854 218.069, 100.425 214.797, 104 212.992 C 107.575 211.188, 114.288 208.429, 118.918 206.862 C 123.547 205.295, 130.747 203.371, 134.918 202.586 C 139.088 201.801, 146.118 200.849, 150.541 200.469 C 155.084 200.079, 163.243 200.280, 169.299 200.932 C 175.194 201.567, 183.276 202.921, 187.259 203.942 C 191.241 204.963, 200.350 207.916, 207.500 210.503 C 214.650 213.091, 227.784 218.527, 236.688 222.584 C 245.591 226.641, 263.141 234.855, 275.688 240.837 C 288.234 246.820, 302.607 253.334, 307.628 255.312 C 312.648 257.290, 321.357 260.275, 326.981 261.946 C 332.606 263.617, 341.120 265.460, 345.902 266.042 C 352.010 266.784, 356.070 266.784, 359.549 266.042 C 362.272 265.461, 367.087 263.984, 370.250 262.760 C 373.413 261.536, 376 260.019, 376 259.390 C 376 258.760, 375.438 257.833, 374.750 257.331 C 374.063 256.828, 370.125 255.595, 366 254.592 C 361.875 253.589, 354.900 251.406, 350.500 249.741 C 346.100 248.076, 335.750 243.485, 327.500 239.538 C 319.250 235.591, 303.500 227.269, 292.500 221.045 C 281.500 214.821, 267.775 207.121, 262 203.934 C 256.225 200.746, 246.516 195.891, 240.424 193.144 C 234.333 190.398, 224.658 186.508, 218.924 184.501 C 213.191 182.495, 202.425 179.265, 195 177.325 C 182.804 174.138, 179.954 173.763, 165.500 173.449 C 156.700 173.258, 147.322 173.497, 144.660 173.981 M 457.253 233.250 C 456.707 233.938, 454.216 238.645, 451.717 243.711 C 449.218 248.777, 444.781 256.427, 441.857 260.711 C 438.932 264.995, 431.806 273.273, 426.020 279.107 C 419.424 285.757, 411.956 292.053, 406 295.983 C 400.775 299.431, 393.575 303.602, 390 305.252 C 386.425 306.902, 379.064 309.766, 373.643 311.616 C 368.222 313.467, 359.765 315.496, 354.850 316.127 C 348.193 316.980, 343.439 316.986, 336.207 316.150 C 330.868 315.533, 321.100 313.657, 314.500 311.981 C 307.900 310.305, 295.975 306.752, 288 304.085 C 280.025 301.418, 267.875 296.764, 261 293.744 C 254.125 290.723, 241.192 284.817, 232.261 280.618 C 223.329 276.419, 208.254 269.790, 198.761 265.886 C 189.267 261.982, 177.675 257.415, 173 255.738 C 166.346 253.350, 162.313 252.586, 154.429 252.221 C 146.823 251.868, 142.908 252.169, 138.429 253.453 C 135.168 254.387, 129.607 256.728, 126.070 258.656 C 122.534 260.583, 116.909 264.244, 113.570 266.791 C 110.232 269.338, 103.419 275.489, 98.431 280.461 C 93.442 285.432, 85.437 294.450, 80.640 300.500 C 75.843 306.550, 71.658 312.533, 71.339 313.797 C 71.021 315.060, 71.032 316.365, 71.364 316.697 C 71.696 317.030, 75.365 314.646, 79.517 311.401 C 83.669 308.155, 92.564 301.567, 99.283 296.760 C 106.002 291.953, 115.377 286, 120.116 283.532 C 124.854 281.064, 131.379 278.350, 134.616 277.501 C 138.868 276.385, 142.857 276.127, 149 276.569 C 153.675 276.905, 160.875 278.093, 165 279.209 C 169.125 280.324, 177.629 283.217, 183.898 285.637 C 190.167 288.058, 207.267 295.831, 221.898 302.911 C 236.529 309.990, 255.025 318.275, 263 321.320 C 270.975 324.365, 282.693 328.427, 289.039 330.347 C 295.385 332.266, 306.185 335.031, 313.039 336.491 C 319.893 337.951, 330.498 339.401, 336.606 339.714 C 343.065 340.045, 351.750 339.775, 357.358 339.069 C 362.662 338.401, 371.164 336.743, 376.251 335.384 C 381.338 334.025, 388.877 331.455, 393.005 329.672 C 397.133 327.890, 403.208 324.648, 406.505 322.468 C 409.802 320.287, 416.060 315.128, 420.411 311.002 C 424.762 306.876, 430.949 299.975, 434.159 295.666 C 437.369 291.358, 441.536 285.058, 443.418 281.666 C 445.301 278.275, 448.486 270.775, 450.497 265 C 452.508 259.225, 455.030 250.530, 456.101 245.678 C 457.172 240.825, 458.765 235.763, 459.639 234.428 C 461.021 232.319, 461.034 232, 459.737 232 C 458.917 232, 457.798 232.563, 457.253 233.250 M 94.949 238.380 C 91.358 240.790, 86.061 245.342, 83.178 248.496 C 80.295 251.650, 75.939 257.029, 73.499 260.450 C 71.058 263.870, 66.157 272.256, 62.608 279.084 C 59.059 285.913, 55.475 293.975, 54.644 297 C 53.813 300.025, 52.832 305.762, 52.465 309.750 C 51.922 315.648, 52.061 317, 53.211 317 C 53.989 317, 55.835 315.738, 57.313 314.195 C 58.791 312.653, 60 311.119, 60 310.788 C 60 310.456, 65.192 302.503, 71.538 293.115 C 77.884 283.727, 84.926 272.773, 87.187 268.773 C 89.448 264.773, 93.520 258.201, 96.234 254.169 C 98.949 250.137, 102.022 244.962, 103.063 242.669 C 104.104 240.376, 104.966 237.488, 104.978 236.250 C 104.993 234.760, 104.405 234, 103.239 234 C 102.271 234, 98.540 235.971, 94.949 238.380 M 0.425 256 C 0.425 267.825, 0.569 272.663, 0.746 266.750 C 0.923 260.837, 0.923 251.162, 0.746 245.250 C 0.569 239.338, 0.425 244.175, 0.425 256 M 204.064 235.940 C 202.952 236.643, 202.892 237.165, 203.797 238.255 C 204.440 239.030, 207.272 240.919, 210.091 242.453 C 212.911 243.988, 220.832 249.923, 227.694 255.643 C 234.557 261.362, 242.855 267.864, 246.134 270.091 C 249.414 272.318, 258.713 277.488, 266.798 281.580 C 274.884 285.672, 286.072 290.813, 291.660 293.004 C 297.247 295.195, 306.988 298.321, 313.306 299.950 C 319.623 301.579, 328.540 303.382, 333.120 303.956 C 337.700 304.530, 345.734 304.992, 350.974 304.983 C 356.213 304.973, 363.509 304.328, 367.186 303.548 C 370.863 302.769, 376.648 301.010, 380.041 299.640 C 383.433 298.269, 389.875 294.977, 394.355 292.324 C 399.899 289.040, 406.057 283.988, 413.639 276.500 C 420.221 270.001, 426.870 262.277, 429.889 257.622 C 432.700 253.289, 435 248.928, 435 247.931 C 435 246.934, 434.551 245.840, 434.001 245.501 C 433.452 245.161, 427.749 248.352, 421.328 252.592 C 414.908 256.832, 403.770 263.129, 396.577 266.586 C 389.385 270.042, 379.643 273.987, 374.929 275.351 C 370.215 276.715, 362.775 278.144, 358.394 278.526 C 353.633 278.941, 347.430 278.755, 342.972 278.064 C 338.870 277.427, 328.211 274.448, 319.286 271.443 C 310.361 268.438, 295.507 262.802, 286.279 258.919 C 277.051 255.035, 266.125 250.596, 262 249.052 C 257.875 247.509, 249.550 244.860, 243.500 243.165 C 237.450 241.470, 228 239.208, 222.500 238.137 C 217 237.067, 210.925 235.930, 209 235.612 C 207.075 235.294, 204.854 235.441, 204.064 235.940" stroke="none" fill="#248c54" fill-rule="evenodd"/></svg>